  0
SECTION
  2
HEADER
  9
$ACADVER
  1
AC1009
  9
$INSBASE
 10
0.0
 20
0.0
 30
0.0
  9
$EXTMIN
 10
-4.729668205351345
 20
2.512550617958822
 30
0.0
  9
$EXTMAX
 10
415.2703317946485981
 20
299.5125506179588228
 30
0.0
  9
$LIMMIN
 10
0.0
 20
0.0
  9
$LIMMAX
 10
420.0
 20
297.0
  9
$ORTHOMODE
 70
     0
  9
$REGENMODE
 70
     1
  9
$FILLMODE
 70
     1
  9
$QTEXTMODE
 70
     0
  9
$MIRRTEXT
 70
     0
  9
$DRAGMODE
 70
     2
  9
$LTSCALE
 40
1.0
  9
$OSMODE
 70
    37
  9
$ATTMODE
 70
     1
  9
$TEXTSIZE
 40
2.5
  9
$TRACEWID
 40
1.0
  9
$TEXTSTYLE
  7
STANDARD
  9
$CLAYER
  8
0
  9
$CELTYPE
  6
BYLAYER
  9
$CECOLOR
 62
   256
  9
$DIMSCALE
 40
1.0
  9
$DIMASZ
 40
2.5
  9
$DIMEXO
 40
0.625
  9
$DIMDLI
 40
3.75
  9
$DIMRND
 40
0.0
  9
$DIMDLE
 40
0.0
  9
$DIMEXE
 40
1.25
  9
$DIMTP
 40
0.0
  9
$DIMTM
 40
0.0
  9
$DIMTXT
 40
2.5
  9
$DIMCEN
 40
2.5
  9
$DIMTSZ
 40
0.0
  9
$DIMTOL
 70
     0
  9
$DIMLIM
 70
     0
  9
$DIMTIH
 70
     0
  9
$DIMTOH
 70
     0
  9
$DIMSE1
 70
     0
  9
$DIMSE2
 70
     0
  9
$DIMTAD
 70
     1
  9
$DIMZIN
 70
     8
  9
$DIMBLK
  1

  9
$DIMASO
 70
     1
  9
$DIMSHO
 70
     1
  9
$DIMPOST
  1

  9
$DIMAPOST
  1

  9
$DIMALT
 70
     0
  9
$DIMALTD
 70
     3
  9
$DIMALTF
 40
0.03937007874016
  9
$DIMLFAC
 40
1.0
  9
$DIMTOFL
 70
     1
  9
$DIMTVP
 40
0.0
  9
$DIMTIX
 70
     0
  9
$DIMSOXD
 70
     0
  9
$DIMSAH
 70
     0
  9
$DIMBLK1
  1

  9
$DIMBLK2
  1

  9
$DIMSTYLE
  2
ISO-25
  9
$DIMCLRD
 70
     0
  9
$DIMCLRE
 70
     0
  9
$DIMCLRT
 70
     0
  9
$DIMTFAC
 40
1.0
  9
$DIMGAP
 40
0.625
  9
$LUNITS
 70
     2
  9
$LUPREC
 70
     4
  9
$SKETCHINC
 40
1.0
  9
$FILLETRAD
 40
0.0
  9
$AUNITS
 70
     0
  9
$AUPREC
 70
     0
  9
$MENU
  1
.
  9
$ELEVATION
 40
0.0
  9
$PELEVATION
 40
0.0
  9
$THICKNESS
 40
0.0
  9
$LIMCHECK
 70
     0
  9
$BLIPMODE
 70
     0
  9
$CHAMFERA
 40
0.0
  9
$CHAMFERB
 40
0.0
  9
$SKPOLY
 70
     0
  9
$TDCREATE
 40
2460436.8932175929658115
  9
$TDUPDATE
 40
2460436.9243287038989365
  9
$TDINDWG
 40
0.0295601852
  9
$TDUSRTIMER
 40
0.0295601852
  9
$USRTIMER
 70
     1
  9
$ANGBASE
 50
0.0
  9
$ANGDIR
 70
     0
  9
$PDMODE
 70
     0
  9
$PDSIZE
 40
0.0
  9
$PLINEWID
 40
0.0
  9
$COORDS
 70
     1
  9
$SPLFRAME
 70
     0
  9
$SPLINETYPE
 70
     6
  9
$SPLINESEGS
 70
     8
  9
$ATTDIA
 70
     1
  9
$ATTREQ
 70
     1
  9
$HANDLING
 70
     1
  9
$HANDSEED
  5
555
  9
$SURFTAB1
 70
     6
  9
$SURFTAB2
 70
     6
  9
$SURFTYPE
 70
     6
  9
$SURFU
 70
     6
  9
$SURFV
 70
     6
  9
$UCSNAME
  2

  9
$UCSORG
 10
0.0
 20
0.0
 30
0.0
  9
$UCSXDIR
 10
1.0
 20
0.0
 30
0.0
  9
$UCSYDIR
 10
0.0
 20
1.0
 30
0.0
  9
$PUCSNAME
  2

  9
$PUCSORG
 10
0.0
 20
0.0
 30
0.0
  9
$PUCSXDIR
 10
1.0
 20
0.0
 30
0.0
  9
$PUCSYDIR
 10
0.0
 20
1.0
 30
0.0
  9
$USERI1
 70
     0
  9
$USERI2
 70
     0
  9
$USERI3
 70
     0
  9
$USERI4
 70
     0
  9
$USERI5
 70
     0
  9
$USERR1
 40
0.0
  9
$USERR2
 40
0.0
  9
$USERR3
 40
0.0
  9
$USERR4
 40
0.0
  9
$USERR5
 40
0.0
  9
$WORLDVIEW
 70
     1
  9
$SHADEDGE
 70
     3
  9
$SHADEDIF
 70
    70
  9
$TILEMODE
 70
     1
  9
$MAXACTVP
 70
    64
  9
$PLIMCHECK
 70
     0
  9
$PEXTMIN
 10
0.0
 20
0.0
 30
0.0
  9
$PEXTMAX
 10
0.0
 20
0.0
 30
0.0
  9
$PLIMMIN
 10
0.0
 20
0.0
  9
$PLIMMAX
 10
12.0
 20
9.0
  9
$UNITMODE
 70
     0
  9
$VISRETAIN
 70
     1
  9
$PLINEGEN
 70
     0
  9
$PSLTSCALE
 70
     1
  0
ENDSEC
  0
SECTION
  2
TABLES
  0
TABLE
  2
VPORT
 70
     1
  0
VPORT
  2
*ACTIVE
 70
     0
 10
0.0
 20
0.0
 11
1.0
 21
1.0
 12
186.4724073683512131
 22
133.8231510109523015
 13
0.0
 23
0.0
 14
10.0
 24
10.0
 15
10.0
 25
10.0
 16
0.0
 26
0.0
 36
1.0
 17
0.0
 27
0.0
 37
0.0
 40
425.0565583339219984
 41
2.498684210526315
 42
50.0
 43
0.0
 44
0.0
 50
0.0
 51
0.0
 71
     0
 72
  1000
 73
     1
 74
     3
 75
     0
 76
     1
 77
     0
 78
     0
  0
ENDTAB
  0
TABLE
  2
LTYPE
 70
     1
  0
LTYPE
  2
CONTINUOUS
 70
     0
  3
Solid line
 72
    65
 73
     0
 40
0.0
  0
ENDTAB
  0
TABLE
  2
LAYER
 70
     1
  0
LAYER
  2
0
 70
     0
 62
     7
  6
CONTINUOUS
  0
ENDTAB
  0
TABLE
  2
STYLE
 70
     2
  0
STYLE
  2
STANDARD
 70
     0
 40
0.0
 41
1.0
 50
0.0
 71
     0
 42
2.5
  3
txt
  4

  0
STYLE
  2
ANNOTATIVE
 70
     0
 40
0.0
 41
1.0
 50
0.0
 71
     0
 42
2.5
  3
txt
  4

  0
ENDTAB
  0
TABLE
  2
VIEW
 70
     0
  0
ENDTAB
  0
TABLE
  2
UCS
 70
     0
  0
ENDTAB
  0
TABLE
  2
APPID
 70
     9
  0
APPID
  2
ACAD
 70
     0
  0
APPID
  2
ACAD_PSEXT
 70
     0
  0
APPID
  2
ACADANNOPO
 70
     0
  0
APPID
  2
ACADANNOTATIVE
 70
     0
  0
APPID
  2
ACAD_DSTYLE_DIMJAG
 70
     0
  0
APPID
  2
ACAD_DSTYLE_DIMTALN
 70
     0
  0
APPID
  2
ACAD_MLEADERVER
 70
     0
  0
APPID
  2
ACAD_NAV_VCDISPLAY
 70
     0
  0
APPID
  2
ACAD_EXEMPT_FROM_CAD_STANDARDS
 70
     0
  0
ENDTAB
  0
TABLE
  2
DIMSTYLE
 70
     3
  0
DIMSTYLE
  2
STANDARD
 70
     0
  3

  4

  5

  6

  7

 40
1.0
 41
0.18
 42
0.0625
 43
0.38
 44
0.18
 45
0.0
 46
0.0
 47
0.0
 48
0.0
140
0.18
141
0.09
142
0.0
143
25.3999999999999986
144
1.0
145
0.0
146
1.0
147
0.09
 71
     0
 72
     0
 73
     1
 74
     1
 75
     0
 76
     0
 77
     0
 78
     0
170
     0
171
     2
172
     0
173
     0
174
     0
175
     0
176
     0
177
     0
178
     0
  0
DIMSTYLE
  2
ANNOTATIVE
 70
     0
  3

  4

  5

  6

  7

 40
0.0
 41
2.5
 42
0.625
 43
3.75
 44
1.25
 45
0.0
 46
0.0
 47
0.0
 48
0.0
140
2.5
141
2.5
142
0.0
143
0.03937007874016
144
1.0
145
0.0
146
1.0
147
0.625
 71
     0
 72
     0
 73
     0
 74
     0
 75
     0
 76
     0
 77
     1
 78
     8
170
     0
171
     3
172
     1
173
     0
174
     0
175
     0
176
     0
177
     0
178
     0
  0
DIMSTYLE
  2
ISO-25
 70
     0
  3

  4

  5

  6

  7

 40
1.0
 41
2.5
 42
0.625
 43
3.75
 44
1.25
 45
0.0
 46
0.0
 47
0.0
 48
0.0
140
2.5
141
2.5
142
0.0
143
0.03937007874016
144
1.0
145
0.0
146
1.0
147
0.625
 71
     0
 72
     0
 73
     0
 74
     0
 75
     0
 76
     0
 77
     1
 78
     8
170
     0
171
     3
172
     1
173
     0
174
     0
175
     0
176
     0
177
     0
178
     0
  0
ENDTAB
  0
ENDSEC
  0
SECTION
  2
BLOCKS
  0
BLOCK
  8
0
  2
$MODEL_SPACE
 70
     0
 10
0.0
 20
0.0
 30
0.0
  3
$MODEL_SPACE
  1

  0
ENDBLK
  5
21
  8
0
  0
BLOCK
 67
     1
  8
0
  2
$PAPER_SPACE
 70
     0
 10
0.0
 20
0.0
 30
0.0
  3
$PAPER_SPACE
  1

  0
ENDBLK
  5
D5
 67
     1
  8
0
  0
ENDSEC
  0
SECTION
  2
ENTITIES
  0
POLYLINE
  5
2B2
  8
0
 66
     1
 10
0.0
 20
0.0
 30
0.0
 70
     1
  0
VERTEX
  5
2B3
  8
0
 10
17.6400472415554717
 20
137.2928213642032915
 30
0.0
  0
VERTEX
  5
2B4
  8
0
 10
17.1868373792676685
 20
142.4730337942802976
 30
0.0
  0
VERTEX
  5
2B5
  8
0
 10
12.2058638888089206
 20
142.0372550805419962
 30
0.0
 42
0.2679491924311228
  0
VERTEX
  5
2B6
  8
0
 10
105.4120347958538986
 20
8.9250478835807705
 30
0.0
  0
VERTEX
  5
2B7
  8
0
 10
107.5251261045574012
 20
13.4565868187640394
 30
0.0
  0
VERTEX
  5
2B8
  8
0
 10
102.8123256119667985
 20
15.6542017798157502
 30
0.0
  0
VERTEX
  5
2B9
  8
0
 10
123.943238699001796
 20
60.9695911316481585
 30
0.0
  0
VERTEX
  5
2BA
  8
0
 10
128.6560391915924129
 20
58.7719761705965311
 30
0.0
  0
VERTEX
  5
2BB
  8
0
 10
130.7691305002958018
 20
63.3035151057798728
 30
0.0
 42
-0.2679491924311226
  0
VERTEX
  5
2BC
  8
0
 10
71.9775457743136258
 20
147.2665996454014987
 30
0.0
  0
VERTEX
  5
2BD
  8
0
 10
66.9965722838549027
 20
146.8308209316631974
 30
0.0
  0
VERTEX
  5
2BE
  8
0
 10
67.449782146142752
 20
141.6506085015861061
 30
0.0
  0
SEQEND
  5
2BF
  8
0
  0
POLYLINE
  5
2C0
  8
0
 66
     1
 10
0.0
 20
0.0
 30
0.0
 70
     1
  0
VERTEX
  5
2C1
  8
0
 10
70.2611675558029134
 20
127.8560655416667942
 30
0.0
  0
VERTEX
  5
2C2
  8
0
 10
21.4463671998062111
 20
117.0340848447614945
 30
0.0
  0
VERTEX
  5
2C3
  8
0
 10
19.1953952148499383
 20
127.1875633188088983
 30
0.0
  0
VERTEX
  5
2C4
  8
0
 10
68.0101955708466193
 20
138.0095440157141127
 30
0.0
  0
SEQEND
  5
2C5
  8
0
  0
POLYLINE
  5
2C6
  8
0
 66
     1
 10
0.0
 20
0.0
 30
0.0
 70
     1
  0
VERTEX
  5
2C7
  8
0
 10
81.1349305508808953
 20
101.9496310217434996
 30
0.0
  0
VERTEX
  5
2C8
  8
0
 10
36.7843888919698117
 20
78.8622003599918457
 30
0.0
  0
VERTEX
  5
2C9
  8
0
 10
31.9822033143254885
 20
88.0871130250453547
 30
0.0
  0
VERTEX
  5
2CA
  8
0
 10
76.3327449732365579
 20
111.1745436867969943
 30
0.0
  0
SEQEND
  5
2CB
  8
0
  0
POLYLINE
  5
2CC
  8
0
 66
     1
 10
0.0
 20
0.0
 30
0.0
 70
     1
  0
VERTEX
  5
2CD
  8
0
 10
98.3432577012306695
 20
79.7402738069402801
 30
0.0
  0
VERTEX
  5
2CE
  8
0
 10
61.4793908607244433
 20
45.9607634261572926
 30
0.0
  0
VERTEX
  5
2CF
  8
0
 10
54.4532527015215706
 20
53.6284477289826214
 30
0.0
  0
VERTEX
  5
2D0
  8
0
 10
91.3171195420277968
 20
87.407958109765616
 30
0.0
  0
SEQEND
  5
2D1
  8
0
  0
POLYLINE
  5
2D2
  8
0
 66
     1
 10
0.0
 20
0.0
 30
0.0
 70
     1
  0
VERTEX
  5
2D3
  8
0
 10
120.7134299496610055
 20
62.7415248887476977
 30
0.0
  0
VERTEX
  5
2D4
  8
0
 10
93.8484495323198047
 20
20.5719525981034295
 30
0.0
  0
VERTEX
  5
2D5
  8
0
 10
85.0771784958658088
 20
26.1598685249104115
 30
0.0
  0
VERTEX
  5
2D6
  8
0
 10
111.9421589132069954
 20
68.3294408155546762
 30
0.0
  0
SEQEND
  5
2D7
  8
0
  0
POLYLINE
  5
2D8
  8
0
 66
     1
 10
0.0
 20
0.0
 30
0.0
 70
     1
  0
VERTEX
  5
2D9
  8
0
 10
108.9712653916332954
 20
70.5077900713762631
 30
0.0
  0
VERTEX
  5
2DA
  8
0
 10
76.8318849073062324
 20
32.2055679154273733
 30
0.0
  0
VERTEX
  5
2DB
  8
0
 10
68.8650226988689127
 20
38.890559056167362
 30
0.0
  0
VERTEX
  5
2DC
  8
0
 10
101.0044031831959046
 20
77.1927812121162731
 30
0.0
  0
SEQEND
  5
2DD
  8
0
  0
POLYLINE
  5
2DE
  8
0
 66
     1
 10
0.0
 20
0.0
 30
0.0
 70
     1
  0
VERTEX
  5
2DF
  8
0
 10
89.0112550366763173
 20
90.2810057389962566
 30
0.0
  0
VERTEX
  5
2E0
  8
0
 10
48.0536528222267805
 20
61.6021839214439808
 30
0.0
  0
VERTEX
  5
2E1
  8
0
 10
42.088457884175881
 20
70.121365182049459
 30
0.0
  0
VERTEX
  5
2E2
  8
0
 10
83.0460600986254605
 20
98.8001869996017348
 30
0.0
  0
SEQEND
  5
2E3
  8
0
  0
POLYLINE
  5
2E4
  8
0
 66
     1
 10
0.0
 20
0.0
 30
0.0
 70
     1
  0
VERTEX
  5
2E5
  8
0
 10
74.8490503395258884
 20
114.5464962414402947
 30
0.0
  0
VERTEX
  5
2E6
  8
0
 10
27.8644193002304696
 20
97.4454890751569138
 30
0.0
  0
VERTEX
  5
2E7
  8
0
 10
24.3074098096434597
 20
107.2182923313303036
 30
0.0
  0
VERTEX
  5
2E8
  8
0
 10
71.2920408489389388
 20
124.3192994976137982
 30
0.0
  0
SEQEND
  5
2E9
  8
0
  0
POLYLINE
  5
2F1
  8
0
 66
     1
 10
0.0
 20
0.0
 30
0.0
 70
     1
  0
VERTEX
  5
550
  8
0
 10
-4.729668205351345
 20
2.512550617958822
 30
0.0
  0
VERTEX
  5
551
  8
0
 10
415.2703317946485981
 20
2.512550617958822
 30
0.0
  0
VERTEX
  5
552
  8
0
 10
415.2703317946485981
 20
299.5125506179588228
 30
0.0
  0
VERTEX
  5
553
  8
0
 10
-4.729668205351345
 20
299.5125506179588228
 30
0.0
  0
SEQEND
  5
554
  8
0
  0
POLYLINE
  5
2F3
  8
0
 66
     1
 10
0.0
 20
0.0
 30
0.0
 70
     1
  0
VERTEX
  5
2F4
  8
0
 10
112.0604603720016996
 20
147.9334530125038896
 30
0.0
  0
VERTEX
  5
2F5
  8
0
 10
111.6072505097138929
 20
142.7532405824269972
 30
0.0
  0
VERTEX
  5
2F6
  8
0
 10
116.5882240001727013
 20
142.3174618686886959
 30
0.0
 42
0.2679491924311228
  0
VERTEX
  5
2F7
  8
0
 10
47.9127564673090873
 20
289.5924772621444276
 30
0.0
  0
VERTEX
  5
2F8
  8
0
 10
45.0448742855538526
 20
285.4967170406994796
 30
0.0
  0
VERTEX
  5
2F9
  8
0
 10
49.3044649158565917
 20
282.5141195716739162
 30
0.0
  0
VERTEX
  5
2FA
  8
0
 10
20.6256430983042911
 20
241.5565173572244078
 30
0.0
  0
VERTEX
  5
2FB
  8
0
 10
16.3660524680015094
 20
244.5391148262498007
 30
0.0
  0
VERTEX
  5
2FC
  8
0
 10
13.4981702862462996
 20
240.4433546048047958
 30
0.0
 42
-0.2679491924311226
  0
VERTEX
  5
2FD
  8
0
 10
56.816542114667989
 20
147.5468064335481984
 30
0.0
  0
VERTEX
  5
2FE
  8
0
 10
61.7975156051266978
 20
147.1110277198098117
 30
0.0
  0
VERTEX
  5
2FF
  8
0
 10
62.2507254674145187
 20
152.2912401498869883
 30
0.0
  0
SEQEND
  5
300
  8
0
  0
POLYLINE
  5
301
  8
0
 66
     1
 10
0.0
 20
0.0
 30
0.0
 70
     1
  0
VERTEX
  5
302
  8
0
 10
61.8774485660139533
 20
166.3644049591823944
 30
0.0
  0
VERTEX
  5
303
  8
0
 10
111.8298596451068931
 20
168.5453743274491956
 30
0.0
  0
VERTEX
  5
304
  8
0
 10
112.2835012737064062
 20
158.1552728229978868
 30
0.0
  0
VERTEX
  5
305
  8
0
 10
62.3310901946134877
 20
155.9743034547310003
 30
0.0
  0
SEQEND
  5
306
  8
0
  0
POLYLINE
  5
307
  8
0
 66
     1
 10
0.0
 20
0.0
 30
0.0
 70
     1
  0
VERTEX
  5
308
  8
0
 10
55.6674876082762324
 20
193.7654716557833012
 30
0.0
  0
VERTEX
  5
309
  8
0
 10
103.3533351456874954
 20
208.8007616309969023
 30
0.0
  0
VERTEX
  5
30A
  8
0
 10
106.4806754605319981
 20
198.8821053432153008
 30
0.0
  0
VERTEX
  5
30B
  8
0
 10
58.7948279231206925
 20
183.8468153680016997
 30
0.0
  0
SEQEND
  5
30C
  8
0
  0
POLYLINE
  5
30D
  8
0
 66
     1
 10
0.0
 20
0.0
 30
0.0
 70
     1
  0
VERTEX
  5
30E
  8
0
 10
42.5772080217457969
 20
218.6256134806938007
 30
0.0
  0
VERTEX
  5
30F
  8
0
 10
84.7467803123900865
 20
245.4905938980348878
 30
0.0
  0
VERTEX
  5
310
  8
0
 10
90.3346962391970436
 20
236.7193228615807925
 30
0.0
  0
VERTEX
  5
311
  8
0
 10
48.1651239485527682
 20
209.8543424442397054
 30
0.0
  0
SEQEND
  5
312
  8
0
  0
POLYLINE
  5
313
  8
0
 66
     1
 10
0.0
 20
0.0
 30
0.0
 70
     1
  0
VERTEX
  5
314
  8
0
 10
23.4986907275348891
 20
239.2506528518730136
 30
0.0
  0
VERTEX
  5
315
  8
0
 10
57.2782011083178872
 20
276.1145196923790763
 30
0.0
  0
VERTEX
  5
316
  8
0
 10
64.9458854111432373
 20
269.0883815331762889
 30
0.0
  0
VERTEX
  5
317
  8
0
 10
31.1663750303601894
 20
232.2245146926701977
 30
0.0
  0
SEQEND
  5
318
  8
0
  0
POLYLINE
  5
319
  8
0
 66
     1
 10
0.0
 20
0.0
 30
0.0
 70
     1
  0
VERTEX
  5
31A
  8
0
 10
33.7138676251842071
 20
229.5633692107049058
 30
0.0
  0
VERTEX
  5
31B
  8
0
 10
72.0160897811331893
 20
261.7027496950317982
 30
0.0
  0
VERTEX
  5
31C
  8
0
 10
78.7010809218731708
 20
253.7358874865944074
 30
0.0
  0
VERTEX
  5
31D
  8
0
 10
40.3988587659242029
 20
221.5965070022674865
 30
0.0
  0
SEQEND
  5
31E
  8
0
  0
POLYLINE
  5
31F
  8
0
 66
     1
 10
0.0
 20
0.0
 30
0.0
 70
     1
  0
VERTEX
  5
320
  8
0
 10
49.9370577056523572
 20
206.6245336948989006
 30
0.0
  0
VERTEX
  5
321
  8
0
 10
95.252447057484801
 20
227.7554467819338129
 30
0.0
  0
VERTEX
  5
322
  8
0
 10
99.6476769795880557
 20
218.3298457967526929
 30
0.0
  0
VERTEX
  5
323
  8
0
 10
54.332287627755619
 20
197.1989327097178091
 30
0.0
  0
SEQEND
  5
324
  8
0
  0
POLYLINE
  5
325
  8
0
 66
     1
 10
0.0
 20
0.0
 30
0.0
 70
     1
  0
VERTEX
  5
326
  8
0
 10
59.6704484852083681
 20
180.2684494800415962
 30
0.0
  0
VERTEX
  5
327
  8
0
 10
108.9108361358187977
 20
188.9508583633881074
 30
0.0
  0
VERTEX
  5
328
  8
0
 10
110.7167771835548962
 20
178.7088577320610909
 30
0.0
  0
VERTEX
  5
329
  8
0
 10
61.4763895329444594
 20
170.0264488487146082
 30
0.0
  0
SEQEND
  5
32A
  8
0
  0
POLYLINE
  5
39E
  8
0
 66
     1
 10
0.0
 20
0.0
 30
0.0
 70
     1
  0
VERTEX
  5
39F
  8
0
 10
111.4828967370177963
 20
137.2928213642032915
 30
0.0
  0
VERTEX
  5
3A0
  8
0
 10
111.0296868747300039
 20
142.4730337942802976
 30
0.0
  0
VERTEX
  5
3A1
  8
0
 10
106.048713384271295
 20
142.0372550805419962
 30
0.0
 42
0.2679491924311228
  0
VERTEX
  5
3A2
  8
0
 10
199.2548842913161877
 20
8.9250478835807705
 30
0.0
  0
VERTEX
  5
3A3
  8
0
 10
201.3679756000196903
 20
13.4565868187640394
 30
0.0
  0
VERTEX
  5
3A4
  8
0
 10
196.6551751074291019
 20
15.6542017798157502
 30
0.0
  0
VERTEX
  5
3A5
  8
0
 10
217.7860881944640994
 20
60.9695911316481585
 30
0.0
  0
VERTEX
  5
3A6
  8
0
 10
222.4988886870546878
 20
58.7719761705965311
 30
0.0
  0
VERTEX
  5
3A7
  8
0
 10
224.6119799957581904
 20
63.3035151057798728
 30
0.0
 42
-0.2679491924311226
  0
VERTEX
  5
3A8
  8
0
 10
165.820395269775986
 20
147.2665996454014987
 30
0.0
  0
VERTEX
  5
3A9
  8
0
 10
160.8394217793172061
 20
146.8308209316631974
 30
0.0
  0
VERTEX
  5
3AA
  8
0
 10
161.2926316416051122
 20
141.6506085015861061
 30
0.0
  0
SEQEND
  5
3AB
  8
0
  0
POLYLINE
  5
3AC
  8
0
 66
     1
 10
0.0
 20
0.0
 30
0.0
 70
     1
  0
VERTEX
  5
3AD
  8
0
 10
164.1040170512652026
 20
127.8560655416667942
 30
0.0
  0
VERTEX
  5
3AE
  8
0
 10
115.2892166952684931
 20
117.0340848447614945
 30
0.0
  0
VERTEX
  5
3AF
  8
0
 10
113.0382447103122985
 20
127.1875633188088983
 30
0.0
  0
VERTEX
  5
3B0
  8
0
 10
161.8530450663089937
 20
138.0095440157141127
 30
0.0
  0
SEQEND
  5
3B1
  8
0
  0
POLYLINE
  5
3B2
  8
0
 66
     1
 10
0.0
 20
0.0
 30
0.0
 70
     1
  0
VERTEX
  5
3B3
  8
0
 10
174.9777800463432129
 20
101.9496310217434996
 30
0.0
  0
VERTEX
  5
3B4
  8
0
 10
130.6272383874321008
 20
78.8622003599918457
 30
0.0
  0
VERTEX
  5
3B5
  8
0
 10
125.825052809787806
 20
88.0871130250453547
 30
0.0
  0
VERTEX
  5
3B6
  8
0
 10
170.1755944686989039
 20
111.1745436867969943
 30
0.0
  0
SEQEND
  5
3B7
  8
0
  0
POLYLINE
  5
3B8
  8
0
 66
     1
 10
0.0
 20
0.0
 30
0.0
 70
     1
  0
VERTEX
  5
3B9
  8
0
 10
192.1861071966930012
 20
79.7402738069402801
 30
0.0
  0
VERTEX
  5
3BA
  8
0
 10
155.3222403561867964
 20
45.9607634261572926
 30
0.0
  0
VERTEX
  5
3BB
  8
0
 10
148.2961021969838953
 20
53.6284477289826214
 30
0.0
  0
VERTEX
  5
3BC
  8
0
 10
185.1599690374901002
 20
87.407958109765616
 30
0.0
  0
SEQEND
  5
3BD
  8
0
  0
POLYLINE
  5
3BE
  8
0
 66
     1
 10
0.0
 20
0.0
 30
0.0
 70
     1
  0
VERTEX
  5
3BF
  8
0
 10
214.5562794451234083
 20
62.7415248887476977
 30
0.0
  0
VERTEX
  5
3C0
  8
0
 10
187.6912990277822075
 20
20.5719525981034295
 30
0.0
  0
VERTEX
  5
3C1
  8
0
 10
178.9200279913281975
 20
26.1598685249104115
 30
0.0
  0
VERTEX
  5
3C2
  8
0
 10
205.7850084086693982
 20
68.3294408155546762
 30
0.0
  0
SEQEND
  5
3C3
  8
0
  0
POLYLINE
  5
3C4
  8
0
 66
     1
 10
0.0
 20
0.0
 30
0.0
 70
     1
  0
VERTEX
  5
3C5
  8
0
 10
202.8141148870955988
 20
70.5077900713762631
 30
0.0
  0
VERTEX
  5
3C6
  8
0
 10
170.6747344027685926
 20
32.2055679154273733
 30
0.0
  0
VERTEX
  5
3C7
  8
0
 10
162.7078721943312871
 20
38.890559056167362
 30
0.0
  0
VERTEX
  5
3C8
  8
0
 10
194.847252678658208
 20
77.1927812121162731
 30
0.0
  0
SEQEND
  5
3C9
  8
0
  0
POLYLINE
  5
3CA
  8
0
 66
     1
 10
0.0
 20
0.0
 30
0.0
 70
     1
  0
VERTEX
  5
3CB
  8
0
 10
182.854104532138706
 20
90.2810057389962566
 30
0.0
  0
VERTEX
  5
3CC
  8
0
 10
141.8965023176891123
 20
61.6021839214439808
 30
0.0
  0
VERTEX
  5
3CD
  8
0
 10
135.9313073796382128
 20
70.121365182049459
 30
0.0
  0
VERTEX
  5
3CE
  8
0
 10
176.8889095940878065
 20
98.8001869996017348
 30
0.0
  0
SEQEND
  5
3CF
  8
0
  0
POLYLINE
  5
3D0
  8
0
 66
     1
 10
0.0
 20
0.0
 30
0.0
 70
     1
  0
VERTEX
  5
3D1
  8
0
 10
168.6918998349881917
 20
114.5464962414402947
 30
0.0
  0
VERTEX
  5
3D2
  8
0
 10
121.7072687956927979
 20
97.4454890751569138
 30
0.0
  0
VERTEX
  5
3D3
  8
0
 10
118.1502593051058057
 20
107.2182923313303036
 30
0.0
  0
VERTEX
  5
3D4
  8
0
 10
165.134890344401299
 20
124.3192994976137982
 30
0.0
  0
SEQEND
  5
3D5
  8
0
  0
POLYLINE
  5
3D6
  8
0
 66
     1
 10
0.0
 20
0.0
 30
0.0
 70
     1
  0
VERTEX
  5
3D7
  8
0
 10
205.9033098674640883
 20
147.9334530125038896
 30
0.0
  0
VERTEX
  5
3D8
  8
0
 10
205.4501000051762958
 20
142.7532405824269972
 30
0.0
  0
VERTEX
  5
3D9
  8
0
 10
210.4310734956349904
 20
142.3174618686886959
 30
0.0
 42
0.2679491924311228
  0
VERTEX
  5
3DA
  8
0
 10
141.7556059627713978
 20
289.5924772621444276
 30
0.0
  0
VERTEX
  5
3DB
  8
0
 10
138.8877237810162057
 20
285.4967170406994796
 30
0.0
  0
VERTEX
  5
3DC
  8
0
 10
143.147314411318888
 20
282.5141195716739162
 30
0.0
  0
VERTEX
  5
3DD
  8
0
 10
114.468492593766598
 20
241.5565173572244078
 30
0.0
  0
VERTEX
  5
3DE
  8
0
 10
110.2089019634638021
 20
244.5391148262498007
 30
0.0
  0
VERTEX
  5
3DF
  8
0
 10
107.3410197817085958
 20
240.4433546048047958
 30
0.0
 42
-0.2679491924311226
  0
VERTEX
  5
3E0
  8
0
 10
150.6593916101303137
 20
147.5468064335481984
 30
0.0
  0
VERTEX
  5
3E1
  8
0
 10
155.6403651005890083
 20
147.1110277198098117
 30
0.0
  0
VERTEX
  5
3E2
  8
0
 10
156.093574962876886
 20
152.2912401498869883
 30
0.0
  0
SEQEND
  5
3E3
  8
0
  0
POLYLINE
  5
3E4
  8
0
 66
     1
 10
0.0
 20
0.0
 30
0.0
 70
     1
  0
VERTEX
  5
3E5
  8
0
 10
155.7202980614763135
 20
166.3644049591823944
 30
0.0
  0
VERTEX
  5
3E6
  8
0
 10
205.6727091405693102
 20
168.5453743274491956
 30
0.0
  0
VERTEX
  5
3E7
  8
0
 10
206.1263507691687096
 20
158.1552728229978868
 30
0.0
  0
VERTEX
  5
3E8
  8
0
 10
156.1739396900757981
 20
155.9743034547310003
 30
0.0
  0
SEQEND
  5
3E9
  8
0
  0
POLYLINE
  5
3EA
  8
0
 66
     1
 10
0.0
 20
0.0
 30
0.0
 70
     1
  0
VERTEX
  5
3EB
  8
0
 10
149.5103371037386069
 20
193.7654716557833012
 30
0.0
  0
VERTEX
  5
3EC
  8
0
 10
197.1961846411498982
 20
208.8007616309969023
 30
0.0
  0
VERTEX
  5
3ED
  8
0
 10
200.3235249559944009
 20
198.8821053432153008
 30
0.0
  0
VERTEX
  5
3EE
  8
0
 10
152.6376774185829959
 20
183.8468153680016997
 30
0.0
  0
SEQEND
  5
3EF
  8
0
  0
POLYLINE
  5
3F0
  8
0
 66
     1
 10
0.0
 20
0.0
 30
0.0
 70
     1
  0
VERTEX
  5
3F1
  8
0
 10
136.4200575172081074
 20
218.6256134806938007
 30
0.0
  0
VERTEX
  5
3F2
  8
0
 10
178.5896298078523898
 20
245.4905938980348878
 30
0.0
  0
VERTEX
  5
3F3
  8
0
 10
184.1775457346593896
 20
236.7193228615807925
 30
0.0
  0
VERTEX
  5
3F4
  8
0
 10
142.0079734440151071
 20
209.8543424442397054
 30
0.0
  0
SEQEND
  5
3F5
  8
0
  0
POLYLINE
  5
3F6
  8
0
 66
     1
 10
0.0
 20
0.0
 30
0.0
 70
     1
  0
VERTEX
  5
3F7
  8
0
 10
117.341540222997196
 20
239.2506528518730136
 30
0.0
  0
VERTEX
  5
3F8
  8
0
 10
151.1210506037801906
 20
276.1145196923790763
 30
0.0
  0
VERTEX
  5
3F9
  8
0
 10
158.7887349066056117
 20
269.0883815331762889
 30
0.0
  0
VERTEX
  5
3FA
  8
0
 10
125.0092245258225034
 20
232.2245146926701977
 30
0.0
  0
SEQEND
  5
3FB
  8
0
  0
POLYLINE
  5
3FC
  8
0
 66
     1
 10
0.0
 20
0.0
 30
0.0
 70
     1
  0
VERTEX
  5
3FD
  8
0
 10
127.5567171206465957
 20
229.5633692107049058
 30
0.0
  0
VERTEX
  5
3FE
  8
0
 10
165.8589392765954926
 20
261.7027496950317982
 30
0.0
  0
VERTEX
  5
3FF
  8
0
 10
172.5439304173355026
 20
253.7358874865944074
 30
0.0
  0
VERTEX
  5
400
  8
0
 10
134.241708261386492
 20
221.5965070022674865
 30
0.0
  0
SEQEND
  5
401
  8
0
  0
POLYLINE
  5
402
  8
0
 66
     1
 10
0.0
 20
0.0
 30
0.0
 70
     1
  0
VERTEX
  5
403
  8
0
 10
143.7799072011146961
 20
206.6245336948989006
 30
0.0
  0
VERTEX
  5
404
  8
0
 10
189.0952965529471044
 20
227.7554467819338129
 30
0.0
  0
VERTEX
  5
405
  8
0
 10
193.4905264750503875
 20
218.3298457967526929
 30
0.0
  0
VERTEX
  5
406
  8
0
 10
148.1751371232180077
 20
197.1989327097178091
 30
0.0
  0
SEQEND
  5
407
  8
0
  0
POLYLINE
  5
408
  8
0
 66
     1
 10
0.0
 20
0.0
 30
0.0
 70
     1
  0
VERTEX
  5
409
  8
0
 10
153.5132979806706999
 20
180.2684494800415962
 30
0.0
  0
VERTEX
  5
40A
  8
0
 10
202.7536856312810869
 20
188.9508583633881074
 30
0.0
  0
VERTEX
  5
40B
  8
0
 10
204.559626679017299
 20
178.7088577320610909
 30
0.0
  0
VERTEX
  5
40C
  8
0
 10
155.3192390284067983
 20
170.0264488487146082
 30
0.0
  0
SEQEND
  5
40D
  8
0
  0
POLYLINE
  5
410
  8
0
 66
     1
 10
0.0
 20
0.0
 30
0.0
 70
     1
  0
VERTEX
  5
411
  8
0
 10
204.7864352752550872
 20
137.2928213642032915
 30
0.0
  0
VERTEX
  5
412
  8
0
 10
204.3332254129672947
 20
142.4730337942802976
 30
0.0
  0
VERTEX
  5
413
  8
0
 10
199.3522519225084864
 20
142.0372550805419962
 30
0.0
 42
0.2679491924311228
  0
VERTEX
  5
414
  8
0
 10
292.5584228295534786
 20
8.9250478835807705
 30
0.0
  0
VERTEX
  5
415
  8
0
 10
294.6715141382570096
 20
13.4565868187640394
 30
0.0
  0
VERTEX
  5
416
  8
0
 10
289.9587136456664211
 20
15.6542017798157502
 30
0.0
  0
VERTEX
  5
417
  8
0
 10
311.0896267327013902
 20
60.9695911316481585
 30
0.0
  0
VERTEX
  5
418
  8
0
 10
315.8024272252919786
 20
58.7719761705965311
 30
0.0
  0
VERTEX
  5
419
  8
0
 10
317.9155185339955096
 20
63.3035151057798728
 30
0.0
 42
-0.2679491924311226
  0
VERTEX
  5
41A
  8
0
 10
259.1239338080133052
 20
147.2665996454014987
 30
0.0
  0
VERTEX
  5
41B
  8
0
 10
254.1429603175544969
 20
146.8308209316631974
 30
0.0
  0
VERTEX
  5
41C
  8
0
 10
254.5961701798424031
 20
141.6506085015861061
 30
0.0
  0
SEQEND
  5
41D
  8
0
  0
POLYLINE
  5
41E
  8
0
 66
     1
 10
0.0
 20
0.0
 30
0.0
 70
     1
  0
VERTEX
  5
41F
  8
0
 10
257.4075555895025218
 20
127.8560655416667942
 30
0.0
  0
VERTEX
  5
420
  8
0
 10
208.5927552335058124
 20
117.0340848447614945
 30
0.0
  0
VERTEX
  5
421
  8
0
 10
206.3417832485496035
 20
127.1875633188088983
 30
0.0
  0
VERTEX
  5
422
  8
0
 10
255.1565836045463129
 20
138.0095440157141127
 30
0.0
  0
SEQEND
  5
423
  8
0
  0
POLYLINE
  5
424
  8
0
 66
     1
 10
0.0
 20
0.0
 30
0.0
 70
     1
  0
VERTEX
  5
425
  8
0
 10
268.2813185845805037
 20
101.9496310217434996
 30
0.0
  0
VERTEX
  5
426
  8
0
 10
223.9307769256693916
 20
78.8622003599918457
 30
0.0
  0
VERTEX
  5
427
  8
0
 10
219.1285913480251111
 20
88.0871130250453547
 30
0.0
  0
VERTEX
  5
428
  8
0
 10
263.4791330069361948
 20
111.1745436867969943
 30
0.0
  0
SEQEND
  5
429
  8
0
  0
POLYLINE
  5
42A
  8
0
 66
     1
 10
0.0
 20
0.0
 30
0.0
 70
     1
  0
VERTEX
  5
42B
  8
0
 10
285.4896457349303205
 20
79.7402738069402801
 30
0.0
  0
VERTEX
  5
42C
  8
0
 10
248.6257788944240872
 20
45.9607634261572926
 30
0.0
  0
VERTEX
  5
42D
  8
0
 10
241.5996407352211861
 20
53.6284477289826214
 30
0.0
  0
VERTEX
  5
42E
  8
0
 10
278.4635075757274194
 20
87.407958109765616
 30
0.0
  0
SEQEND
  5
42F
  8
0
  0
POLYLINE
  5
430
  8
0
 66
     1
 10
0.0
 20
0.0
 30
0.0
 70
     1
  0
VERTEX
  5
431
  8
0
 10
307.8598179833606991
 20
62.7415248887476977
 30
0.0
  0
VERTEX
  5
432
  8
0
 10
280.9948375660193847
 20
20.5719525981034295
 30
0.0
  0
VERTEX
  5
433
  8
0
 10
272.223566529565403
 20
26.1598685249104115
 30
0.0
  0
VERTEX
  5
434
  8
0
 10
299.0885469469067175
 20
68.3294408155546762
 30
0.0
  0
SEQEND
  5
435
  8
0
  0
POLYLINE
  5
436
  8
0
 66
     1
 10
0.0
 20
0.0
 30
0.0
 70
     1
  0
VERTEX
  5
437
  8
0
 10
296.1176534253328896
 20
70.5077900713762631
 30
0.0
  0
VERTEX
  5
438
  8
0
 10
263.9782729410057982
 20
32.2055679154273733
 30
0.0
  0
VERTEX
  5
439
  8
0
 10
256.0114107325686064
 20
38.890559056167362
 30
0.0
  0
VERTEX
  5
43A
  8
0
 10
288.1507912168955841
 20
77.1927812121162731
 30
0.0
  0
SEQEND
  5
43B
  8
0
  0
POLYLINE
  5
43C
  8
0
 66
     1
 10
0.0
 20
0.0
 30
0.0
 70
     1
  0
VERTEX
  5
43D
  8
0
 10
276.1576430703759115
 20
90.2810057389962566
 30
0.0
  0
VERTEX
  5
43E
  8
0
 10
235.2000408559264031
 20
61.6021839214439808
 30
0.0
  0
VERTEX
  5
43F
  8
0
 10
229.2348459178755036
 20
70.121365182049459
 30
0.0
  0
VERTEX
  5
440
  8
0
 10
270.1924481323251257
 20
98.8001869996017348
 30
0.0
  0
SEQEND
  5
441
  8
0
  0
POLYLINE
  5
442
  8
0
 66
     1
 10
0.0
 20
0.0
 30
0.0
 70
     1
  0
VERTEX
  5
443
  8
0
 10
261.995438373225511
 20
114.5464962414402947
 30
0.0
  0
VERTEX
  5
444
  8
0
 10
215.0108073339301029
 20
97.4454890751569138
 30
0.0
  0
VERTEX
  5
445
  8
0
 10
211.4537978433430965
 20
107.2182923313303036
 30
0.0
  0
VERTEX
  5
446
  8
0
 10
258.4384288826385045
 20
124.3192994976137982
 30
0.0
  0
SEQEND
  5
447
  8
0
  0
POLYLINE
  5
448
  8
0
 66
     1
 10
0.0
 20
0.0
 30
0.0
 70
     1
  0
VERTEX
  5
449
  8
0
 10
299.2068484057014075
 20
147.9334530125038896
 30
0.0
  0
VERTEX
  5
44A
  8
0
 10
298.753638543413615
 20
142.7532405824269972
 30
0.0
  0
VERTEX
  5
44B
  8
0
 10
303.7346120338722812
 20
142.3174618686886959
 30
0.0
 42
0.2679491924311228
  0
VERTEX
  5
44C
  8
0
 10
235.0591445010086886
 20
289.5924772621444276
 30
0.0
  0
VERTEX
  5
44D
  8
0
 10
232.1912623192534966
 20
285.4967170406994796
 30
0.0
  0
VERTEX
  5
44E
  8
0
 10
236.4508529495562072
 20
282.5141195716739162
 30
0.0
  0
VERTEX
  5
44F
  8
0
 10
207.7720311320038888
 20
241.5565173572244078
 30
0.0
  0
VERTEX
  5
450
  8
0
 10
203.5124405017010929
 20
244.5391148262498007
 30
0.0
  0
VERTEX
  5
451
  8
0
 10
200.6445583199459008
 20
240.4433546048047958
 30
0.0
 42
-0.2679491924311226
  0
VERTEX
  5
452
  8
0
 10
243.9629301483676045
 20
147.5468064335481984
 30
0.0
  0
VERTEX
  5
453
  8
0
 10
248.9439036388262991
 20
147.1110277198098117
 30
0.0
  0
VERTEX
  5
454
  8
0
 10
249.3971135011140916
 20
152.2912401498869883
 30
0.0
  0
SEQEND
  5
455
  8
0
  0
POLYLINE
  5
456
  8
0
 66
     1
 10
0.0
 20
0.0
 30
0.0
 70
     1
  0
VERTEX
  5
457
  8
0
 10
249.0238365997136043
 20
166.3644049591823944
 30
0.0
  0
VERTEX
  5
458
  8
0
 10
298.976247678806601
 20
168.5453743274491956
 30
0.0
  0
VERTEX
  5
459
  8
0
 10
299.429889307405972
 20
158.1552728229978868
 30
0.0
  0
VERTEX
  5
45A
  8
0
 10
249.4774782283130889
 20
155.9743034547310003
 30
0.0
  0
SEQEND
  5
45B
  8
0
  0
POLYLINE
  5
45C
  8
0
 66
     1
 10
0.0
 20
0.0
 30
0.0
 70
     1
  0
VERTEX
  5
45D
  8
0
 10
242.8138756419758977
 20
193.7654716557833012
 30
0.0
  0
VERTEX
  5
45E
  8
0
 10
290.4997231793871038
 20
208.8007616309969023
 30
0.0
  0
VERTEX
  5
45F
  8
0
 10
293.6270634942316065
 20
198.8821053432153008
 30
0.0
  0
VERTEX
  5
460
  8
0
 10
245.9412159568202867
 20
183.8468153680016997
 30
0.0
  0
SEQEND
  5
461
  8
0
  0
POLYLINE
  5
462
  8
0
 66
     1
 10
0.0
 20
0.0
 30
0.0
 70
     1
  0
VERTEX
  5
463
  8
0
 10
229.7235960554453982
 20
218.6256134806938007
 30
0.0
  0
VERTEX
  5
464
  8
0
 10
271.8931683460897943
 20
245.4905938980348878
 30
0.0
  0
VERTEX
  5
465
  8
0
 10
277.4810842728966804
 20
236.7193228615807925
 30
0.0
  0
VERTEX
  5
466
  8
0
 10
235.311511982252398
 20
209.8543424442397054
 30
0.0
  0
SEQEND
  5
467
  8
0
  0
POLYLINE
  5
468
  8
0
 66
     1
 10
0.0
 20
0.0
 30
0.0
 70
     1
  0
VERTEX
  5
469
  8
0
 10
210.6450787612344868
 20
239.2506528518730136
 30
0.0
  0
VERTEX
  5
46A
  8
0
 10
244.4245891420175099
 20
276.1145196923790763
 30
0.0
  0
VERTEX
  5
46B
  8
0
 10
252.0922734448429026
 20
269.0883815331762889
 30
0.0
  0
VERTEX
  5
46C
  8
0
 10
218.3127630640597943
 20
232.2245146926701977
 30
0.0
  0
SEQEND
  5
46D
  8
0
  0
POLYLINE
  5
46E
  8
0
 66
     1
 10
0.0
 20
0.0
 30
0.0
 70
     1
  0
VERTEX
  5
46F
  8
0
 10
220.8602556588838013
 20
229.5633692107049058
 30
0.0
  0
VERTEX
  5
470
  8
0
 10
259.1624778148328119
 20
261.7027496950317982
 30
0.0
  0
VERTEX
  5
471
  8
0
 10
265.8474689555728219
 20
253.7358874865944074
 30
0.0
  0
VERTEX
  5
472
  8
0
 10
227.5452467996238113
 20
221.5965070022674865
 30
0.0
  0
SEQEND
  5
473
  8
0
  0
POLYLINE
  5
474
  8
0
 66
     1
 10
0.0
 20
0.0
 30
0.0
 70
     1
  0
VERTEX
  5
475
  8
0
 10
237.083445739351987
 20
206.6245336948989006
 30
0.0
  0
VERTEX
  5
476
  8
0
 10
282.3988350911844236
 20
227.7554467819338129
 30
0.0
  0
VERTEX
  5
477
  8
0
 10
286.794065013287593
 20
218.3298457967526929
 30
0.0
  0
VERTEX
  5
478
  8
0
 10
241.4786756614552985
 20
197.1989327097178091
 30
0.0
  0
SEQEND
  5
479
  8
0
  0
POLYLINE
  5
47A
  8
0
 66
     1
 10
0.0
 20
0.0
 30
0.0
 70
     1
  0
VERTEX
  5
47B
  8
0
 10
246.8168365189079907
 20
180.2684494800415962
 30
0.0
  0
VERTEX
  5
47C
  8
0
 10
296.0572241695184061
 20
188.9508583633881074
 30
0.0
  0
VERTEX
  5
47D
  8
0
 10
297.8631652172545046
 20
178.7088577320610909
 30
0.0
  0
VERTEX
  5
47E
  8
0
 10
248.6227775666440891
 20
170.0264488487146082
 30
0.0
  0
SEQEND
  5
47F
  8
0
  0
POLYLINE
  5
482
  8
0
 66
     1
 10
0.0
 20
0.0
 30
0.0
 70
     1
  0
VERTEX
  5
483
  8
0
 10
298.0899738134904737
 20
137.2928213642032915
 30
0.0
  0
VERTEX
  5
484
  8
0
 10
297.6367639512026813
 20
142.4730337942802976
 30
0.0
  0
VERTEX
  5
485
  8
0
 10
292.655790460744015
 20
142.0372550805419962
 30
0.0
 42
0.2679491924311228
  0
VERTEX
  5
486
  8
0
 10
385.861961367788922
 20
8.9250478835807705
 30
0.0
  0
VERTEX
  5
487
  8
0
 10
387.9750526764923961
 20
13.4565868187640394
 30
0.0
  0
VERTEX
  5
488
  8
0
 10
383.2622521839019214
 20
15.6542017798157502
 30
0.0
  0
VERTEX
  5
489
  8
0
 10
404.3931652709367768
 20
60.9695911316481585
 30
0.0
  0
VERTEX
  5
48A
  8
0
 10
409.105965763527422
 20
58.7719761705965311
 30
0.0
  0
VERTEX
  5
48B
  8
0
 10
411.2190570722308962
 20
63.3035151057798728
 30
0.0
 42
-0.2679491924311226
  0
VERTEX
  5
48C
  8
0
 10
352.4274723462486918
 20
147.2665996454014987
 30
0.0
  0
VERTEX
  5
48D
  8
0
 10
347.4464988557900256
 20
146.8308209316631974
 30
0.0
  0
VERTEX
  5
48E
  8
0
 10
347.899708718077818
 20
141.6506085015861061
 30
0.0
  0
SEQEND
  5
48F
  8
0
  0
POLYLINE
  5
490
  8
0
 66
     1
 10
0.0
 20
0.0
 30
0.0
 70
     1
  0
VERTEX
  5
491
  8
0
 10
350.7110941277379084
 20
127.8560655416667942
 30
0.0
  0
VERTEX
  5
492
  8
0
 10
301.8962937717412842
 20
117.0340848447614945
 30
0.0
  0
VERTEX
  5
493
  8
0
 10
299.6453217867850185
 20
127.1875633188088983
 30
0.0
  0
VERTEX
  5
494
  8
0
 10
348.4601221427816995
 20
138.0095440157141127
 30
0.0
  0
SEQEND
  5
495
  8
0
  0
POLYLINE
  5
496
  8
0
 66
     1
 10
0.0
 20
0.0
 30
0.0
 70
     1
  0
VERTEX
  5
497
  8
0
 10
361.584857122816004
 20
101.9496310217434996
 30
0.0
  0
VERTEX
  5
498
  8
0
 10
317.2343154639049203
 20
78.8622003599918457
 30
0.0
  0
VERTEX
  5
499
  8
0
 10
312.4321298862604976
 20
88.0871130250453547
 30
0.0
  0
VERTEX
  5
49A
  8
0
 10
356.7826715451715813
 20
111.1745436867969943
 30
0.0
  0
SEQEND
  5
49B
  8
0
  0
POLYLINE
  5
49C
  8
0
 66
     1
 10
0.0
 20
0.0
 30
0.0
 70
     1
  0
VERTEX
  5
49D
  8
0
 10
378.7931842731657071
 20
79.7402738069402801
 30
0.0
  0
VERTEX
  5
49E
  8
0
 10
341.9293174326595022
 20
45.9607634261572926
 30
0.0
  0
VERTEX
  5
49F
  8
0
 10
334.9031792734566011
 20
53.6284477289826214
 30
0.0
  0
VERTEX
  5
4A0
  8
0
 10
371.7670461139629197
 20
87.407958109765616
 30
0.0
  0
SEQEND
  5
4A1
  8
0
  0
POLYLINE
  5
4A2
  8
0
 66
     1
 10
0.0
 20
0.0
 30
0.0
 70
     1
  0
VERTEX
  5
4A3
  8
0
 10
401.163356521595972
 20
62.7415248887476977
 30
0.0
  0
VERTEX
  5
4A4
  8
0
 10
374.2983761042548849
 20
20.5719525981034295
 30
0.0
  0
VERTEX
  5
4A5
  8
0
 10
365.5271050678009033
 20
26.1598685249104115
 30
0.0
  0
VERTEX
  5
4A6
  8
0
 10
392.3920854851421041
 20
68.3294408155546762
 30
0.0
  0
SEQEND
  5
4A7
  8
0
  0
POLYLINE
  5
4A8
  8
0
 66
     1
 10
0.0
 20
0.0
 30
0.0
 70
     1
  0
VERTEX
  5
4A9
  8
0
 10
389.4211919635682762
 20
70.5077900713762631
 30
0.0
  0
VERTEX
  5
4AA
  8
0
 10
357.2818114792412985
 20
32.2055679154273733
 30
0.0
  0
VERTEX
  5
4AB
  8
0
 10
349.3149492708039929
 20
38.890559056167362
 30
0.0
  0
VERTEX
  5
4AC
  8
0
 10
381.4543297551310275
 20
77.1927812121162731
 30
0.0
  0
SEQEND
  5
4AD
  8
0
  0
POLYLINE
  5
4AE
  8
0
 66
     1
 10
0.0
 20
0.0
 30
0.0
 70
     1
  0
VERTEX
  5
4AF
  8
0
 10
369.4611816086112981
 20
90.2810057389962566
 30
0.0
  0
VERTEX
  5
4B0
  8
0
 10
328.5035793941618749
 20
61.6021839214439808
 30
0.0
  0
VERTEX
  5
4B1
  8
0
 10
322.5383844561109754
 20
70.121365182049459
 30
0.0
  0
VERTEX
  5
4B2
  8
0
 10
363.4959866705605123
 20
98.8001869996017348
 30
0.0
  0
SEQEND
  5
4B3
  8
0
  0
POLYLINE
  5
4B4
  8
0
 66
     1
 10
0.0
 20
0.0
 30
0.0
 70
     1
  0
VERTEX
  5
4B5
  8
0
 10
355.2989769114608976
 20
114.5464962414402947
 30
0.0
  0
VERTEX
  5
4B6
  8
0
 10
308.3143458721655179
 20
97.4454890751569138
 30
0.0
  0
VERTEX
  5
4B7
  8
0
 10
304.7573363815785115
 20
107.2182923313303036
 30
0.0
  0
VERTEX
  5
4B8
  8
0
 10
351.7419674208740048
 20
124.3192994976137982
 30
0.0
  0
SEQEND
  5
4B9
  8
0
  0
POLYLINE
  5
4BA
  8
0
 66
     1
 10
0.0
 20
0.0
 30
0.0
 70
     1
  0
VERTEX
  5
4BB
  8
0
 10
392.5103869439367941
 20
147.9334530125038896
 30
0.0
  0
VERTEX
  5
4BC
  8
0
 10
392.0571770816490016
 20
142.7532405824269972
 30
0.0
  0
VERTEX
  5
4BD
  8
0
 10
397.0381505721077247
 20
142.3174618686886959
 30
0.0
 42
0.2679491924311228
  0
VERTEX
  5
4BE
  8
0
 10
328.3626830392441889
 20
289.5924772621444276
 30
0.0
  0
VERTEX
  5
4BF
  8
0
 10
325.4948008574888831
 20
285.4967170406994796
 30
0.0
  0
VERTEX
  5
4C0
  8
0
 10
329.7543914877916222
 20
282.5141195716739162
 30
0.0
  0
VERTEX
  5
4C1
  8
0
 10
301.0755696702394175
 20
241.5565173572244078
 30
0.0
  0
VERTEX
  5
4C2
  8
0
 10
296.8159790399365079
 20
244.5391148262498007
 30
0.0
  0
VERTEX
  5
4C3
  8
0
 10
293.9480968581813727
 20
240.4433546048047958
 30
0.0
 42
-0.2679491924311226
  0
VERTEX
  5
4C4
  8
0
 10
337.2664686866031047
 20
147.5468064335481984
 30
0.0
  0
VERTEX
  5
4C5
  8
0
 10
342.2474421770618278
 20
147.1110277198098117
 30
0.0
  0
VERTEX
  5
4C6
  8
0
 10
342.7006520393496203
 20
152.2912401498869883
 30
0.0
  0
SEQEND
  5
4C7
  8
0
  0
POLYLINE
  5
4C8
  8
0
 66
     1
 10
0.0
 20
0.0
 30
0.0
 70
     1
  0
VERTEX
  5
4C9
  8
0
 10
342.3273751379491046
 20
166.3644049591823944
 30
0.0
  0
VERTEX
  5
4CA
  8
0
 10
392.2797862170419876
 20
168.5453743274491956
 30
0.0
  0
VERTEX
  5
4CB
  8
0
 10
392.7334278456414722
 20
158.1552728229978868
 30
0.0
  0
VERTEX
  5
4CC
  8
0
 10
342.7810167665484755
 20
155.9743034547310003
 30
0.0
  0
SEQEND
  5
4CD
  8
0
  0
POLYLINE
  5
4CE
  8
0
 66
     1
 10
0.0
 20
0.0
 30
0.0
 70
     1
  0
VERTEX
  5
4CF
  8
0
 10
336.1174141802113127
 20
193.7654716557833012
 30
0.0
  0
VERTEX
  5
4D0
  8
0
 10
383.803261717622604
 20
208.8007616309969023
 30
0.0
  0
VERTEX
  5
4D1
  8
0
 10
386.9306020324671067
 20
198.8821053432153008
 30
0.0
  0
VERTEX
  5
4D2
  8
0
 10
339.2447544950558154
 20
183.8468153680016997
 30
0.0
  0
SEQEND
  5
4D3
  8
0
  0
POLYLINE
  5
4D4
  8
0
 66
     1
 10
0.0
 20
0.0
 30
0.0
 70
     1
  0
VERTEX
  5
4D5
  8
0
 10
323.0271345936808984
 20
218.6256134806938007
 30
0.0
  0
VERTEX
  5
4D6
  8
0
 10
365.1967068843251809
 20
245.4905938980348878
 30
0.0
  0
VERTEX
  5
4D7
  8
0
 10
370.7846228111321238
 20
236.7193228615807925
 30
0.0
  0
VERTEX
  5
4D8
  8
0
 10
328.6150505204877845
 20
209.8543424442397054
 30
0.0
  0
SEQEND
  5
4D9
  8
0
  0
POLYLINE
  5
4DA
  8
0
 66
     1
 10
0.0
 20
0.0
 30
0.0
 70
     1
  0
VERTEX
  5
4DB
  8
0
 10
303.9486172994700155
 20
239.2506528518730136
 30
0.0
  0
VERTEX
  5
4DC
  8
0
 10
337.7281276802530101
 20
276.1145196923790763
 30
0.0
  0
VERTEX
  5
4DD
  8
0
 10
345.3958119830783176
 20
269.0883815331762889
 30
0.0
  0
VERTEX
  5
4DE
  8
0
 10
311.6163016022952092
 20
232.2245146926701977
 30
0.0
  0
SEQEND
  5
4DF
  8
0
  0
POLYLINE
  5
4E0
  8
0
 66
     1
 10
0.0
 20
0.0
 30
0.0
 70
     1
  0
VERTEX
  5
4E1
  8
0
 10
314.1637941971192731
 20
229.5633692107049058
 30
0.0
  0
VERTEX
  5
4E2
  8
0
 10
352.4660163530683121
 20
261.7027496950317982
 30
0.0
  0
VERTEX
  5
4E3
  8
0
 10
359.1510074938083221
 20
253.7358874865944074
 30
0.0
  0
VERTEX
  5
4E4
  8
0
 10
320.8487853378592831
 20
221.5965070022674865
 30
0.0
  0
SEQEND
  5
4E5
  8
0
  0
POLYLINE
  5
4E6
  8
0
 66
     1
 10
0.0
 20
0.0
 30
0.0
 70
     1
  0
VERTEX
  5
4E7
  8
0
 10
330.3869842775874872
 20
206.6245336948989006
 30
0.0
  0
VERTEX
  5
4E8
  8
0
 10
375.7023736294199239
 20
227.7554467819338129
 30
0.0
  0
VERTEX
  5
4E9
  8
0
 10
380.0976035515230933
 20
218.3298457967526929
 30
0.0
  0
VERTEX
  5
4EA
  8
0
 10
334.7822141996905998
 20
197.1989327097178091
 30
0.0
  0
SEQEND
  5
4EB
  8
0
  0
POLYLINE
  5
4EC
  8
0
 66
     1
 10
0.0
 20
0.0
 30
0.0
 70
     1
  0
VERTEX
  5
4ED
  8
0
 10
340.1203750571434057
 20
180.2684494800415962
 30
0.0
  0
VERTEX
  5
4EE
  8
0
 10
389.3607627077539064
 20
188.9508583633881074
 30
0.0
  0
VERTEX
  5
4EF
  8
0
 10
391.1667037554900048
 20
178.7088577320610909
 30
0.0
  0
VERTEX
  5
4F0
  8
0
 10
341.9263161048796178
 20
170.0264488487146082
 30
0.0
  0
SEQEND
  5
4F1
  8
0
  0
ENDSEC
  0
EOF
