<?xml version="1.0" encoding="UTF-8" standalone="no"?>
<svg
   viewBox="0 0 793.7007874015749 1122.5196850393702"
   width="793.7007874015749"
   height="1122.5196850393702"
   version="1.1"
   id="svg69"
   sodipodi:docname="sextant laser drawing.svg"
   inkscape:version="1.3.2 (091e20e, 2023-11-25, custom)"
   xmlns:inkscape="http://www.inkscape.org/namespaces/inkscape"
   xmlns:sodipodi="http://sodipodi.sourceforge.net/DTD/sodipodi-0.dtd"
   xmlns="http://www.w3.org/2000/svg"
   xmlns:svg="http://www.w3.org/2000/svg">
  <sodipodi:namedview
     id="namedview69"
     pagecolor="#ffffff"
     bordercolor="#000000"
     borderopacity="0.25"
     inkscape:showpageshadow="2"
     inkscape:pageopacity="0.0"
     inkscape:pagecheckerboard="0"
     inkscape:deskcolor="#d1d1d1"
     showgrid="false"
     inkscape:zoom="0.49575349"
     inkscape:cx="655.56775"
     inkscape:cy="620.26795"
     inkscape:window-width="1920"
     inkscape:window-height="1001"
     inkscape:window-x="-9"
     inkscape:window-y="-9"
     inkscape:window-maximized="1"
     inkscape:current-layer="g69" />
  <desc
     id="desc1">sextant laser drawing.dxf - scale = 0.500000, origin = (-4.729668, 2.512551), method = auto</desc>
  <defs
     id="defs4">
    <marker
       id="DistanceX"
       orient="auto"
       refX="0.0"
       refY="0.0"
       style="overflow:visible">
      <path
         d="M 3,-3 L -3,3 M 0,-5 L  0,5"
         style="stroke:#000000; stroke-width:0.5"
         id="path1" />
    </marker>
    <pattern
       id="Hatch"
       patternUnits="userSpaceOnUse"
       width="8"
       height="8"
       x="0"
       y="0">
      <path
         d="M8 4 l-4,4"
         stroke="#000000"
         stroke-width="0.25"
         linecap="square"
         id="path2" />
      <path
         d="M6 2 l-4,4"
         stroke="#000000"
         stroke-width="0.25"
         linecap="square"
         id="path3" />
      <path
         d="M4 0 l-4,4"
         stroke="#000000"
         stroke-width="0.25"
         linecap="square"
         id="path4" />
    </pattern>
    <symbol
       id="$MODEL_SPACE" />
    <symbol
       id="$PAPER_SPACE" />
  </defs>
  <g
     inkscape:groupmode="layer"
     inkscape:label="0"
     id="g69">
    <g
       id="g70"
       transform="matrix(1.4116263,0,0,1.4116263,-163.35406,-627.52347)">
      <path
         d="m 370.92335,487.31285 9.78937,-0.85646 -0.82351,-9.41286 A 307.08661,307.08661 0 0 0 128.33858,653.18117 l 8.56354,3.99324 4.15297,-8.90607 85.63538,39.93243 -4.15297,8.90608 8.56354,3.99324 a 193.70079,193.70079 0 0 1 158.67039,-111.1022 l -0.82352,-9.41287 -9.78938,0.85646 z"
         style="fill:none;stroke:#000000"
         id="path5" />
      <path
         d="m 353.09011,586.75434 -20.45099,-92.24845 19.18768,-4.2538 20.45098,92.24844 z"
         style="fill:none;stroke:#000000"
         id="path6" />
      <path
         d="m 304.13307,607.30318 -43.62979,-83.81205 17.4329,-9.07499 43.62979,83.81204 z"
         style="fill:none;stroke:#000000"
         id="path7" />
      <path
         d="m 262.16263,639.82285 -63.8353,-69.664 14.49011,-13.27774 63.8353,69.664 z"
         style="fill:none;stroke:#000000"
         id="path8" />
      <path
         d="m 230.03901,682.09719 -79.69053,-50.76846 10.55984,-16.57563 79.69053,50.76846 z"
         style="fill:none;stroke:#000000"
         id="path9" />
      <path
         d="m 244.71541,659.90728 -72.38215,-60.73584 12.63306,-15.05549 72.38215,60.73584 z"
         style="fill:none;stroke:#000000"
         id="path10" />
      <path
         d="m 282.08212,622.18757 -54.1962,-77.40019 16.09924,-11.27281 54.1962,77.40019 z"
         style="fill:none;stroke:#000000"
         id="path11" />
      <path
         d="m 327.93816,595.42435 -32.31686,-88.78985 18.46829,-6.72191 32.31686,88.78985 z"
         style="fill:none;stroke:#000000"
         id="path12" />
      <path
         d="M 116.22047,445.03937 V 1238.7402 H 677.48031 V 445.03937 Z"
         style="fill:none;stroke:#000000"
         id="path13" />
      <path
         d="m 391.03163,665.74513 -9.78938,-0.85646 -0.82352,9.41286 A 307.08661,307.08661 0 0 0 658.73372,544.52112 l -7.74002,-5.41962 -5.6364,8.04962 -77.4002,-54.1962 5.63641,-8.04962 -7.74002,-5.41962 a 193.70079,193.70079 0 0 1 -175.55253,81.86149 l -0.82352,9.41286 9.78937,0.85646 z"
         style="fill:none;stroke:#000000"
         id="path14" />
      <path
         d="m 425.86177,570.91109 4.12152,94.39825 -19.63484,0.85728 -4.12152,-94.39826 z"
         style="fill:none;stroke:#000000"
         id="path15" />
      <path
         d="m 477.64332,559.17573 28.41314,90.11499 -18.74392,5.90993 -28.41314,-90.11499 z"
         style="fill:none;stroke:#000000"
         id="path16" />
      <path
         d="m 524.62311,534.43819 50.76847,79.69053 -16.57563,10.55984 -50.76847,-79.69053 z"
         style="fill:none;stroke:#000000"
         id="path17" />
      <path
         d="m 563.59956,498.3843 69.664,63.8353 -13.27774,14.49011 -69.664,-63.8353 z"
         style="fill:none;stroke:#000000"
         id="path18" />
      <path
         d="m 545.29289,517.68857 60.73583,72.38215 -15.05548,12.63306 -60.73584,-72.38215 z"
         style="fill:none;stroke:#000000"
         id="path19" />
      <path
         d="m 501.94391,548.34657 39.93243,85.63538 -17.81216,8.30595 -39.93243,-85.63538 z"
         style="fill:none;stroke:#000000"
         id="path20" />
      <path
         d="m 452.13713,566.74038 16.4077,93.0527 -19.35496,3.4128 -16.4077,-93.0527 z"
         style="fill:none;stroke:#000000"
         id="path21" />
      <path
         d="m 370.92335,664.65367 9.78937,-0.85646 -0.82351,-9.41287 A 307.08661,307.08661 0 0 0 128.33858,830.52199 l 8.56354,3.99324 4.15297,-8.90608 85.63538,39.93244 -4.15297,8.90608 8.56354,3.99324 A 193.70079,193.70079 0 0 1 389.77143,767.3387 l -0.82352,-9.41286 -9.78938,0.85646 z"
         style="fill:none;stroke:#000000"
         id="path22" />
      <path
         d="m 353.09011,764.09515 -20.45099,-92.24844 19.18768,-4.2538 20.45098,92.24844 z"
         style="fill:none;stroke:#000000"
         id="path23" />
      <path
         d="m 304.13307,784.644 -43.62979,-83.81205 17.4329,-9.075 43.62979,83.81205 z"
         style="fill:none;stroke:#000000"
         id="path24" />
      <path
         d="m 262.16263,817.16367 -63.8353,-69.664 14.49011,-13.27774 63.8353,69.664 z"
         style="fill:none;stroke:#000000"
         id="path25" />
      <path
         d="m 230.03901,859.43801 -79.69053,-50.76847 10.55984,-16.57563 79.69053,50.76847 z"
         style="fill:none;stroke:#000000"
         id="path26" />
      <path
         d="m 244.71541,837.24809 -72.38215,-60.73583 12.63306,-15.05549 72.38215,60.73584 z"
         style="fill:none;stroke:#000000"
         id="path27" />
      <path
         d="m 282.08212,799.52839 -54.1962,-77.40019 16.09924,-11.27281 54.1962,77.40019 z"
         style="fill:none;stroke:#000000"
         id="path28" />
      <path
         d="m 327.93816,772.76517 -32.31686,-88.78986 18.46829,-6.7219 32.31686,88.78985 z"
         style="fill:none;stroke:#000000"
         id="path29" />
      <path
         d="m 391.03163,843.08594 -9.78938,-0.85646 -0.82352,9.41287 A 307.08661,307.08661 0 0 0 658.73372,721.86194 l -7.74002,-5.41962 -5.6364,8.04962 -77.4002,-54.1962 5.63641,-8.04962 -7.74002,-5.41962 a 193.70079,193.70079 0 0 1 -175.55253,81.86149 l -0.82352,9.41286 9.78937,0.85646 z"
         style="fill:none;stroke:#000000"
         id="path30" />
      <path
         d="m 425.86177,748.25191 4.12152,94.39825 -19.63484,0.85728 -4.12152,-94.39826 z"
         style="fill:none;stroke:#000000"
         id="path31" />
      <path
         d="m 477.64332,736.51655 28.41314,90.11498 -18.74392,5.90994 -28.41314,-90.11499 z"
         style="fill:none;stroke:#000000"
         id="path32" />
      <path
         d="m 524.62311,711.77901 50.76847,79.69053 -16.57563,10.55984 -50.76847,-79.69053 z"
         style="fill:none;stroke:#000000"
         id="path33" />
      <path
         d="m 563.59956,675.72512 69.664,63.83529 -13.27774,14.49012 -69.664,-63.8353 z"
         style="fill:none;stroke:#000000"
         id="path34" />
      <path
         d="m 545.29289,695.02939 60.73583,72.38215 -15.05548,12.63306 -60.73584,-72.38216 z"
         style="fill:none;stroke:#000000"
         id="path35" />
      <path
         d="m 501.94391,725.68739 39.93243,85.63538 -17.81216,8.30594 -39.93243,-85.63538 z"
         style="fill:none;stroke:#000000"
         id="path36" />
      <path
         d="m 452.13713,744.0812 16.4077,93.0527 -19.35496,3.4128 -16.4077,-93.0527 z"
         style="fill:none;stroke:#000000"
         id="path37" />
      <path
         d="m 370.92335,840.97531 9.78937,-0.85646 -0.82351,-9.41286 A 307.08661,307.08661 0 0 0 128.33858,1006.8436 l 8.56354,3.9933 4.15297,-8.9061 85.63538,39.9324 -4.15297,8.9061 8.56354,3.9933 A 193.70079,193.70079 0 0 1 389.77143,943.66035 l -0.82352,-9.41286 -9.78938,0.85646 z"
         style="fill:none;stroke:#000000"
         id="path38" />
      <path
         d="m 353.09011,940.4168 -20.45099,-92.24844 19.18768,-4.25381 20.45098,92.24845 z"
         style="fill:none;stroke:#000000"
         id="path39" />
      <path
         d="m 304.13307,960.96564 -43.62979,-83.81204 17.4329,-9.075 43.62979,83.81205 z"
         style="fill:none;stroke:#000000"
         id="path40" />
      <path
         d="m 262.16263,993.48532 -63.8353,-69.664 14.49011,-13.27774 63.8353,69.664 z"
         style="fill:none;stroke:#000000"
         id="path41" />
      <path
         d="m 230.03901,1035.7597 -79.69053,-50.76851 10.55984,-16.57563 79.69053,50.76844 z"
         style="fill:none;stroke:#000000"
         id="path42" />
      <path
         d="m 244.71541,1013.5697 -72.38215,-60.7358 12.63306,-15.05548 72.38215,60.73583 z"
         style="fill:none;stroke:#000000"
         id="path43" />
      <path
         d="m 282.08212,975.85004 -54.1962,-77.4002 16.09924,-11.27281 54.1962,77.4002 z"
         style="fill:none;stroke:#000000"
         id="path44" />
      <path
         d="m 327.93816,949.08682 -32.31686,-88.78986 18.46829,-6.72191 32.31686,88.78986 z"
         style="fill:none;stroke:#000000"
         id="path45" />
      <path
         d="m 391.03163,1019.4076 -9.78938,-0.8565 -0.82352,9.4129 A 307.08661,307.08661 0 0 0 658.73372,898.18358 l -7.74002,-5.41962 -5.6364,8.04962 -77.4002,-54.1962 5.63641,-8.04962 -7.74002,-5.41961 a 193.70079,193.70079 0 0 1 -175.55253,81.86149 l -0.82352,9.41286 9.78937,0.85646 z"
         style="fill:none;stroke:#000000"
         id="path46" />
      <path
         d="m 425.86177,924.57355 4.12152,94.39825 -19.63484,0.8573 -4.12152,-94.39827 z"
         style="fill:none;stroke:#000000"
         id="path47" />
      <path
         d="m 477.64332,912.83819 28.41314,90.11501 -18.74392,5.9099 -28.41314,-90.11497 z"
         style="fill:none;stroke:#000000"
         id="path48" />
      <path
         d="m 524.62311,888.10066 50.76847,79.69053 -16.57563,10.55984 -50.76847,-79.69053 z"
         style="fill:none;stroke:#000000"
         id="path49" />
      <path
         d="m 563.59956,852.04677 69.664,63.83529 -13.27774,14.49011 -69.664,-63.83529 z"
         style="fill:none;stroke:#000000"
         id="path50" />
      <path
         d="m 545.29289,871.35104 60.73583,72.38215 -15.05548,12.63305 -60.73584,-72.38215 z"
         style="fill:none;stroke:#000000"
         id="path51" />
      <path
         d="m 501.94391,902.00903 39.93243,85.63539 -17.81216,8.30594 -39.93243,-85.63538 z"
         style="fill:none;stroke:#000000"
         id="path52" />
      <path
         d="m 452.13713,920.40284 16.4077,93.05266 -19.35496,3.4128 -16.4077,-93.05265 z"
         style="fill:none;stroke:#000000"
         id="path53" />
      <path
         d="m 370.92335,1017.297 9.78937,-0.8565 -0.82351,-9.4129 a 307.08661,307.08661 0 0 0 -251.55063,176.1377 l 8.56354,3.9932 4.15297,-8.9061 85.63538,39.9325 -4.15297,8.9061 8.56354,3.9932 A 193.70079,193.70079 0 0 1 389.77143,1119.982 l -0.82352,-9.4129 -9.78938,0.8565 z"
         style="fill:none;stroke:#000000"
         id="path54" />
      <path
         d="m 353.09011,1116.7384 -20.45099,-92.2484 19.18768,-4.2538 20.45098,92.2484 z"
         style="fill:none;stroke:#000000"
         id="path55" />
      <path
         d="m 304.13307,1137.2873 -43.62979,-83.8121 17.4329,-9.075 43.62979,83.8121 z"
         style="fill:none;stroke:#000000"
         id="path56" />
      <path
         d="m 262.16263,1169.807 -63.8353,-69.664 14.49011,-13.2778 63.8353,69.664 z"
         style="fill:none;stroke:#000000"
         id="path57" />
      <path
         d="m 230.03901,1212.0813 -79.69053,-50.7685 10.55984,-16.5756 79.69053,50.7685 z"
         style="fill:none;stroke:#000000"
         id="path58" />
      <path
         d="m 244.71541,1189.8914 -72.38215,-60.7358 12.63306,-15.0555 72.38215,60.7358 z"
         style="fill:none;stroke:#000000"
         id="path59" />
      <path
         d="m 282.08212,1152.1717 -54.1962,-77.4002 16.09924,-11.2728 54.1962,77.4002 z"
         style="fill:none;stroke:#000000"
         id="path60" />
      <path
         d="m 327.93816,1125.4085 -32.31686,-88.7899 18.46829,-6.7219 32.31686,88.7899 z"
         style="fill:none;stroke:#000000"
         id="path61" />
      <path
         d="m 391.03163,1195.7292 -9.78938,-0.8564 -0.82352,9.4128 a 307.08661,307.08661 0 0 0 278.31499,-129.7804 l -7.74002,-5.4196 -5.6364,8.0496 -77.4002,-54.1962 5.63641,-8.0496 -7.74002,-5.4196 a 193.70079,193.70079 0 0 1 -175.55253,81.8615 l -0.82352,9.4128 9.78937,0.8565 z"
         style="fill:none;stroke:#000000"
         id="path62" />
      <path
         d="m 425.86177,1100.8952 4.12152,94.3983 -19.63484,0.8572 -4.12152,-94.3982 z"
         style="fill:none;stroke:#000000"
         id="path63" />
      <path
         d="m 477.64332,1089.1598 28.41314,90.115 -18.74392,5.91 -28.41314,-90.115 z"
         style="fill:none;stroke:#000000"
         id="path64" />
      <path
         d="m 524.62311,1064.4223 50.76847,79.6905 -16.57563,10.5599 -50.76847,-79.6906 z"
         style="fill:none;stroke:#000000"
         id="path65" />
      <path
         d="m 563.59956,1028.3684 69.664,63.8353 -13.27774,14.4901 -69.664,-63.8353 z"
         style="fill:none;stroke:#000000"
         id="path66" />
      <path
         d="m 545.29289,1047.6727 60.73583,72.3821 -15.05548,12.6331 -60.73584,-72.3822 z"
         style="fill:none;stroke:#000000"
         id="path67" />
      <path
         d="m 501.94391,1078.3307 39.93243,85.6354 -17.81216,8.3059 -39.93243,-85.6354 z"
         style="fill:none;stroke:#000000"
         id="path68" />
      <path
         d="m 452.13713,1096.7245 16.4077,93.0527 -19.35496,3.4128 -16.4077,-93.0527 z"
         style="fill:none;stroke:#000000"
         id="path69" />
    </g>
  </g>
</svg>
